<svg xmlns="http://www.w3.org/2000/svg" width="1400" height="760">
  <rect width="1400" height="760" fill="white"/>
  <defs><marker id="a" markerWidth="10" markerHeight="10" refX="8" refY="3" orient="auto"><path d="M0 0L0 6L9 3z" fill="#5b6e82"/></marker></defs>
  <g font-family="DejaVu Sans" text-anchor="middle">
    <text x="700" y="65" font-size="38" font-weight="bold" fill="#1f2d3d">GT Sophy Distributed Training System</text>
    <g stroke="#28384a" stroke-width="4">
      <rect x="70" y="170" width="320" height="120" rx="18" fill="#dcecff"/>
      <rect x="540" y="170" width="320" height="120" rx="18" fill="#e6f4e8"/>
      <rect x="1010" y="170" width="320" height="120" rx="18" fill="#fff1cc"/>
      <rect x="305" y="500" width="320" height="120" rx="18" fill="#eee4ff"/>
      <rect x="775" y="500" width="320" height="120" rx="18" fill="#fde2e2"/>
    </g>
    <g fill="#1f2d3d"><text x="230" y="220" font-size="27">Distributed actors</text><text x="230" y="255" font-size="21">many races and opponents</text>
      <text x="700" y="220" font-size="27">Replay and data mixture</text><text x="700" y="255" font-size="21">skills, tracks, etiquette cases</text>
      <text x="1170" y="220" font-size="27">Learner</text><text x="1170" y="255" font-size="21">policy and value updates</text>
      <text x="465" y="550" font-size="27">Evaluation league</text><text x="465" y="585" font-size="21">experts, versions, edge cases</text>
      <text x="935" y="550" font-size="27">Deployment feedback</text><text x="935" y="585" font-size="21">behavior and safety revisions</text></g>
    <g stroke="#5b6e82" stroke-width="5" fill="none" marker-end="url(#a)">
      <path d="M390 230H530"/><path d="M860 230H1000"/><path d="M1170 290L1000 490"/><path d="M775 560H635"/><path d="M465 500L250 300"/>
      <path d="M935 500L760 300"/>
    </g>
  </g>
</svg>
